<svg width="11" height="13" viewBox="0 0 11 13" fill="none" xmlns="http://www.w3.org/2000/svg">
<path d="M1.86328 5.875H9.10938C9.76562 5.875 10.1211 5.08203 9.62891 4.58984L6.01953 0.871094C5.88281 0.707031 5.69141 0.625 5.5 0.625C5.30859 0.625 5.08984 0.707031 4.95312 0.871094L1.34375 4.58984C0.851562 5.08203 1.20703 5.875 1.86328 5.875ZM9.10938 7.625H1.86328C1.20703 7.625 0.851562 8.44531 1.34375 8.9375L4.95312 12.6562C5.08984 12.8203 5.28125 12.875 5.5 12.875C5.69141 12.875 5.88281 12.8203 6.01953 12.6562L9.62891 8.9375C10.1211 8.44531 9.76562 7.625 9.10938 7.625Z" fill="#555770"/>
</svg>
