<svg width="9" height="9" viewBox="0 0 9 9" fill="none" xmlns="http://www.w3.org/2000/svg">
<path d="M3.75 0.375L3.75 3.75L0.375 3.75C0.1875 3.75 -2.21289e-07 3.9375 -2.13093e-07 4.125L-1.80309e-07 4.875C-1.71089e-07 5.08594 0.1875 5.25 0.375 5.25L3.75 5.25L3.75 8.625C3.75 8.83594 3.9375 9 4.125 9L4.875 9C5.08594 9 5.25 8.83594 5.25 8.625L5.25 5.25L8.625 5.25C8.83594 5.25 9 5.08594 9 4.875L9 4.125C9 3.9375 8.83594 3.75 8.625 3.75L5.25 3.75L5.25 0.375C5.25 0.1875 5.08594 -3.09736e-07 4.875 -3.00516e-07L4.125 -2.67732e-07C3.9375 -2.59536e-07 3.75 0.1875 3.75 0.375Z" fill="#3E7BFA"/>
</svg>
