<svg width="20" height="20" viewBox="0 0 20 20" fill="none" xmlns="http://www.w3.org/2000/svg">
<path d="M10 0.145874C4.64844 0.145874 0.3125 4.52087 0.3125 9.83337C0.3125 15.1849 4.64844 19.5209 10 19.5209C15.3125 19.5209 19.6875 15.1849 19.6875 9.83337C19.6875 4.52087 15.3125 0.145874 10 0.145874ZM10 18.2709C5.35156 18.2709 1.5625 14.5209 1.5625 9.83337C1.5625 5.224 5.3125 1.39587 10 1.39587C14.6094 1.39587 18.4375 5.18494 18.4375 9.83337C18.4375 14.4818 14.6484 18.2709 10 18.2709ZM15.5078 7.56775C15.7031 7.37244 15.7031 7.05994 15.5078 6.90369L15.1953 6.55212C15 6.35681 14.6875 6.35681 14.5312 6.55212L8.125 12.8802L5.42969 10.1849C5.27344 9.98962 4.96094 9.98962 4.76562 10.1849L4.45312 10.4974C4.25781 10.6927 4.25781 10.9662 4.45312 11.1615L7.8125 14.5599C7.96875 14.7162 8.28125 14.7162 8.47656 14.5599L15.5078 7.56775Z" fill="#35B26F"/>
</svg>
