<svg width="11" height="13" viewBox="0 0 11 13" fill="none" xmlns="http://www.w3.org/2000/svg">
<path d="M9.875 11.125H1.09766C0.632812 11.125 0.25 11.5352 0.25 12C0.25 12.4375 0.632812 12.875 1.09766 12.875H9.875C10.3398 12.875 10.75 12.4922 10.75 12C10.75 11.5352 10.3398 11.125 9.875 11.125ZM9.21875 5.02734H7.25V1.52734C7.25 1.03516 6.83984 0.652344 6.375 0.652344H4.625C4.13281 0.652344 3.75 1.03516 3.75 1.52734V5.02734H1.78125C1.50781 5.02734 1.26172 5.16406 1.15234 5.41016C1.07031 5.65625 1.09766 5.92969 1.28906 6.12109L5.00781 10.0586C5.25391 10.332 5.71875 10.332 5.96484 10.0586L9.68359 6.12109C9.875 5.92969 9.90234 5.65625 9.82031 5.41016C9.71094 5.16406 9.46484 5.02734 9.21875 5.02734Z" fill="#555770"/>
</svg>
