<svg width="14" height="15" viewBox="0 0 14 15" fill="none" xmlns="http://www.w3.org/2000/svg">
<path d="M14 7.75C14 7.77734 13.9727 7.80469 13.9727 7.83203C13.9727 8.84375 13.0703 9.5 12.0586 9.5H9.40625C8.66797 9.5 8.09375 10.1016 8.09375 10.8125C8.09375 10.9219 8.09375 11.0039 8.12109 11.0859C8.17578 11.3867 8.28516 11.6328 8.39453 11.9062C8.55859 12.2891 8.75 12.6719 8.75 13.0547C8.75 13.9297 8.14844 14.7227 7.27344 14.75C7.19141 14.75 7.08203 14.75 7 14.75C3.11719 14.75 0 11.6328 0 7.75C0 3.89453 3.11719 0.75 7 0.75C10.8555 0.75 14 3.89453 14 7.75ZM2.625 7.75C2.13281 7.75 1.75 8.16016 1.75 8.625C1.75 9.11719 2.13281 9.5 2.625 9.5C3.08984 9.5 3.5 9.11719 3.5 8.625C3.5 8.16016 3.08984 7.75 2.625 7.75ZM3.5 6C3.96484 6 4.375 5.61719 4.375 5.125C4.375 4.66016 3.96484 4.25 3.5 4.25C3.00781 4.25 2.625 4.66016 2.625 5.125C2.625 5.61719 3.00781 6 3.5 6ZM7 2.5C6.50781 2.5 6.125 2.91016 6.125 3.375C6.125 3.86719 6.50781 4.25 7 4.25C7.46484 4.25 7.875 3.86719 7.875 3.375C7.875 2.91016 7.46484 2.5 7 2.5ZM10.5 6C10.9648 6 11.375 5.61719 11.375 5.125C11.375 4.66016 10.9648 4.25 10.5 4.25C10.0078 4.25 9.625 4.66016 9.625 5.125C9.625 5.61719 10.0078 6 10.5 6Z" fill="#003084"/>
</svg>
