<svg width="14" height="14" viewBox="0 0 14 14" fill="none" xmlns="http://www.w3.org/2000/svg">
<path d="M12.2773 0.84375L10.9648 2.18359C9.89844 1.22656 8.50391 0.625 7 0.625C4.40234 0.625 2.13281 2.29297 1.33984 4.75391C1.20312 5.21875 1.44922 5.71094 1.91406 5.84766C2.37891 5.98438 2.87109 5.73828 3.00781 5.27344C3.55469 3.55078 5.16797 2.375 7 2.375C8.01172 2.375 8.99609 2.78516 9.73438 3.41406L8.50391 4.61719C8.06641 5.08203 8.36719 5.875 9.02344 5.875H13.043C13.3164 5.875 13.5625 5.65625 13.5625 5.35547V1.39062C13.5625 0.707031 12.7422 0.378906 12.2773 0.84375ZM12.0586 7.67969C11.5938 7.54297 11.1016 7.78906 10.9648 8.25391C10.418 9.97656 8.80469 11.125 7 11.125C5.96094 11.125 5.00391 10.7422 4.23828 10.1133L5.46875 8.88281C5.90625 8.44531 5.60547 7.65234 4.94922 7.625H0.929688C0.65625 7.65234 0.4375 7.87109 0.4375 8.17188V12.1367C0.4375 12.8203 1.23047 13.1484 1.69531 12.6836L3.00781 11.3438C4.07422 12.3008 5.46875 12.875 6.97266 12.875C9.54297 12.875 11.8125 11.2344 12.6055 8.77344C12.7695 8.30859 12.5234 7.81641 12.0586 7.67969Z" fill="white"/>
</svg>
