<svg width="15" height="13" viewBox="0 0 15 13" fill="none" xmlns="http://www.w3.org/2000/svg">
<path d="M14.4531 5.95703L2.20312 0.707031C2.09375 0.652344 1.98438 0.625 1.875 0.625C1.62891 0.625 1.38281 0.707031 1.21875 0.898438C0.972656 1.17188 0.917969 1.58203 1.08203 1.91016L3.625 6.75L1.08203 11.6172C0.917969 11.9453 0.972656 12.3555 1.21875 12.6016C1.38281 12.793 1.62891 12.9023 1.875 12.9023C1.98438 12.9023 2.09375 12.875 2.20312 12.8203L14.4531 7.57031C14.7812 7.43359 15 7.10547 15 6.75C14.9727 6.42188 14.7812 6.09375 14.4531 5.95703ZM2.80469 2.40234L11.4727 6.09375H4.74609L2.80469 2.40234ZM4.74609 7.40625H11.4727L2.80469 11.125L4.74609 7.40625Z" fill="white"/>
</svg>
