<svg width="36" height="36" viewBox="0 0 36 36" fill="none" xmlns="http://www.w3.org/2000/svg">
<path d="M12.2561 23.14C11.7521 23.14 11.2715 23.0793 10.8141 22.958C10.3661 22.8273 9.96479 22.6313 9.61012 22.37C9.25546 22.1087 8.97079 21.7867 8.75612 21.404C8.55079 21.0213 8.44346 20.5687 8.43412 20.046C8.43412 19.962 8.46212 19.892 8.51812 19.836C8.57412 19.7707 8.64412 19.738 8.72812 19.738H10.0581C10.1795 19.738 10.2681 19.7707 10.3241 19.836C10.3895 19.9013 10.4408 19.99 10.4781 20.102C10.5248 20.438 10.6321 20.7133 10.8001 20.928C10.9681 21.1333 11.1781 21.2873 11.4301 21.39C11.6915 21.4833 11.9808 21.53 12.2981 21.53C12.8861 21.53 13.3341 21.3387 13.6421 20.956C13.9595 20.5733 14.1181 20.0413 14.1181 19.36V14.852H9.37212C9.26946 14.852 9.18546 14.8193 9.12012 14.754C9.06412 14.6887 9.03612 14.6093 9.03612 14.516V13.536C9.03612 13.4427 9.06412 13.3633 9.12012 13.298C9.18546 13.2327 9.26946 13.2 9.37212 13.2H15.7701C15.8728 13.2 15.9568 13.2327 16.0221 13.298C16.0875 13.3633 16.1201 13.4473 16.1201 13.55V19.416C16.1201 20.1907 15.9568 20.858 15.6301 21.418C15.3128 21.978 14.8648 22.4073 14.2861 22.706C13.7168 22.9953 13.0401 23.14 12.2561 23.14ZM19.0509 23C18.9576 23 18.8783 22.972 18.8129 22.916C18.7476 22.8507 18.7149 22.7667 18.7149 22.664V13.55C18.7149 13.4473 18.7476 13.3633 18.8129 13.298C18.8783 13.2327 18.9576 13.2 19.0509 13.2H20.3249C20.4276 13.2 20.5069 13.2327 20.5629 13.298C20.6283 13.3633 20.6609 13.4473 20.6609 13.55V17.162H24.7909V13.55C24.7909 13.4473 24.8236 13.3633 24.8889 13.298C24.9543 13.2327 25.0336 13.2 25.1269 13.2H26.3869C26.4896 13.2 26.5736 13.2327 26.6389 13.298C26.7043 13.3633 26.7369 13.4473 26.7369 13.55V22.664C26.7369 22.7573 26.7043 22.8367 26.6389 22.902C26.5736 22.9673 26.4896 23 26.3869 23H25.1269C25.0336 23 24.9543 22.9673 24.8889 22.902C24.8236 22.8367 24.7909 22.7573 24.7909 22.664V18.912H20.6609V22.664C20.6609 22.7573 20.6283 22.8367 20.5629 22.902C20.5069 22.9673 20.4276 23 20.3249 23H19.0509Z" fill="#5B86E5"/>
<circle cx="18.0001" cy="18" r="16" fill="#95BF47"/>
<path d="M23.4537 13.129C23.4537 13.0323 23.389 13 23.2919 13C23.2273 13 22.0953 12.9677 22.0953 12.9677C22.0953 12.9677 21.4161 12.2903 21.1574 12.0323V26L25.2001 24.9677C25.2001 24.9677 23.4537 13.1935 23.4537 13.129ZM20.2195 12.0323C20.1871 11.871 20.0578 11.6129 19.9931 11.4516C19.6697 10.8065 19.1522 10.4516 18.5701 10.4516C18.5377 10.4516 18.5377 10.4516 18.5377 10.4516C18.5054 10.4516 18.4407 10.4839 18.4407 10.4839C18.4083 10.4516 18.376 10.4516 18.376 10.4194C18.1173 10.129 17.7939 10 17.3734 10C16.5972 10.0323 15.821 10.5806 15.2065 11.5806C14.7537 12.2903 14.4303 13.1613 14.3333 13.8387C13.4277 14.129 12.8132 14.3226 12.8132 14.3226C12.3604 14.4839 12.3281 14.4839 12.2958 14.9032C12.2634 15.2258 11.0668 24.3226 11.0668 24.3226L20.834 26V11.871C20.8016 11.871 20.7369 11.871 20.7046 11.9032C20.6723 11.9032 20.5106 11.9355 20.2195 12.0323ZM18.4407 12.5806C17.9232 12.7419 17.3411 12.9355 16.7913 13.0968C16.953 12.4839 17.244 11.871 17.6321 11.4839C17.7615 11.3226 17.9556 11.1613 18.182 11.0645C18.4083 11.5161 18.4407 12.1613 18.4407 12.5806ZM17.3734 10.5484H17.4058C17.5351 10.5484 17.7292 10.6129 17.8585 10.6452C17.6321 10.7742 17.4381 10.9355 17.244 11.129C16.7266 11.6452 16.3708 12.4839 16.2091 13.2581C15.7563 13.4194 15.2712 13.5484 14.8508 13.6774C15.1418 12.4516 16.1768 10.5806 17.3734 10.5484ZM15.8857 17.6452C15.918 18.4839 18.1173 18.6452 18.2466 20.6129C18.3437 22.129 17.4381 23.1935 16.1121 23.2581C14.5273 23.3548 13.6865 22.4516 13.6865 22.4516L14.0099 21.0323C14.0099 21.0323 14.8831 21.6774 15.5623 21.6129C16.0151 21.6129 16.2091 21.2258 16.1768 20.9677C16.1121 19.871 14.3333 19.9355 14.2039 18.1613C14.1069 16.6774 15.1095 15.1613 17.2764 15C18.1173 14.9677 18.5377 15.1613 18.5377 15.1613L18.0526 17.0323C18.0526 17.0323 17.5028 16.7742 16.8236 16.8065C15.8857 16.871 15.8533 17.4839 15.8857 17.6452ZM18.9582 12.4194C18.9582 12.0323 18.8935 11.4839 18.7318 11.0323C19.3139 11.129 19.605 11.8065 19.7344 12.1935C19.508 12.2581 19.2492 12.3548 18.9582 12.4194Z" fill="white"/>
</svg>
