<svg width="24" height="24" viewBox="0 0 24 24" fill="none" xmlns="http://www.w3.org/2000/svg">
<path fill-rule="evenodd" clip-rule="evenodd" d="M13.8162 19.8379C13.8162 19.2158 13.3118 18.7114 12.6897 18.7114H11.3103C11.0115 18.7114 10.725 18.8301 10.5138 19.0414C10.3025 19.2526 10.1838 19.5391 10.1838 19.8379C10.1838 20.46 10.6882 20.9644 11.3103 20.9644H12.6897C13.3118 20.9644 13.8162 20.46 13.8162 19.8379ZM5.36816 16.9332C5.55632 16.9476 5.78395 16.9558 6.01261 16.9424C6.13443 17.5602 6.43705 18.1332 6.88877 18.5849C7.48847 19.1846 8.30181 19.5215 9.14988 19.5215H9.5797C9.56075 19.6252 9.55102 19.7311 9.55102 19.8379C9.55102 19.9459 9.56075 20.0517 9.57942 20.1543H9.14988C8.13397 20.1543 7.15965 19.7507 6.4413 19.0324C5.86822 18.4593 5.49546 17.7233 5.36816 16.9332ZM5.04627 16.2598C4.54666 16.1756 4.08176 15.9381 3.71884 15.5751C3.25857 15.1149 3 14.4906 3 13.8397V12.344C3 11.6931 3.25857 11.0688 3.71884 10.6086C4.17911 10.1483 4.80337 9.88969 5.45429 9.88969H5.61766C5.8788 6.59358 8.63653 4 12 4C15.3635 4 18.1212 6.59358 18.3823 9.88969H18.5457C19.1966 9.88969 19.8209 10.1483 20.2812 10.6086C20.7414 11.0688 21 11.6931 21 12.344V13.8397C21 14.4906 20.7414 15.1149 20.2812 15.5751C19.8209 16.0354 19.1966 16.294 18.5457 16.294H17.8215C17.5211 16.294 17.2776 16.0505 17.2776 15.7501V10.4026C17.2776 7.48785 14.9147 5.125 12 5.125C9.08527 5.125 6.72241 7.48785 6.72241 10.4026V15.7501C6.72241 15.9622 6.60102 16.146 6.4239 16.2356C5.93636 16.4048 5.18025 16.2824 5.04627 16.2598Z" fill="white"/>
</svg>
